<?xml version="1.0" standalone="no"?>
<!DOCTYPE svg PUBLIC "-//W3C//DTD SVG 20010904//EN"
 "http://www.w3.org/TR/2001/REC-SVG-20010904/DTD/svg10.dtd">
<svg version="1.0" xmlns="http://www.w3.org/2000/svg"
 width="643.000000pt" height="254.000000pt" viewBox="0 0 643.000000 254.000000"
 preserveAspectRatio="xMidYMid meet">

<g transform="translate(0.000000,254.000000) scale(0.100000,-0.100000)"
fill="#000000" stroke="none">
<path d="M5842 2158 c-14 -14 -16 -38 -4 -38 15 0 134 -122 179 -184 60 -81
107 -176 140 -283 25 -81 27 -102 27 -253 0 -151 -2 -172 -27 -253 -94 -307
-317 -530 -624 -624 -81 -25 -102 -27 -253 -27 -151 0 -172 2 -253 27 -145 45
-270 117 -381 221 -37 35 -40 36 -58 19 -18 -16 -17 -18 24 -61 60 -61 199
-152 290 -190 133 -55 236 -75 383 -75 107 1 148 5 229 27 353 92 610 350 703
705 35 131 36 315 5 444 -47 190 -142 358 -276 485 -42 40 -80 72 -84 72 -4 0
-13 -5 -20 -12z"/>
<path d="M4920 1436 c0 -306 1 -316 21 -334 46 -44 151 -34 170 16 7 17 9 91
7 200 -3 94 -4 172 -2 172 2 0 57 -80 123 -177 222 -328 242 -348 323 -324 81
25 78 12 78 360 l0 310 -26 20 c-48 38 -156 23 -168 -23 -3 -11 -6 -86 -6
-165 l0 -144 -42 59 c-76 109 -67 104 -188 104 l-107 0 -83 115 c-45 63 -86
118 -91 121 -5 3 -9 -130 -9 -310z"/>
<path d="M512 1729 c-65 -13 -159 -67 -206 -120 -136 -151 -136 -367 0 -518
52 -58 138 -105 219 -121 44 -8 520 -10 1756 -8 l1695 3 76 38 c121 59 196
156 219 285 6 31 9 113 7 182 -3 116 -5 129 -31 173 -18 31 -42 55 -70 70
l-42 22 -1790 1 c-984 1 -1809 -2 -1833 -7z m523 -228 c138 -62 139 -242 2
-310 -69 -34 -127 -24 -183 32 -48 48 -62 101 -45 165 15 53 46 91 95 113 51
23 80 23 131 0z m496 9 c18 -10 19 -23 19 -166 0 -151 0 -155 -22 -163 -25 -9
-49 -4 -60 13 -4 6 -8 75 -8 153 0 115 3 144 16 157 18 19 28 20 55 6z m310
-11 c23 -12 25 -52 4 -69 -11 -9 -22 -9 -49 0 -44 14 -69 7 -96 -27 -26 -34
-26 -83 2 -118 21 -27 24 -27 89 -21 56 5 68 3 73 -10 12 -30 -4 -52 -49 -70
-80 -30 -172 6 -206 80 -31 67 -20 136 28 194 47 56 142 75 204 41z m140 11
c18 -10 19 -23 19 -166 0 -151 0 -155 -22 -163 -25 -9 -49 -4 -60 13 -4 6 -8
75 -8 153 0 115 3 144 16 157 18 19 28 20 55 6z m250 -9 c9 -9 119 -277 119
-290 0 -17 -46 -42 -64 -35 -9 4 -23 22 -31 40 -13 32 -16 34 -65 34 -48 0
-52 -2 -62 -30 -12 -36 -35 -51 -64 -40 -37 14 -35 38 9 143 24 56 49 117 57
135 21 53 71 74 101 43z m328 8 c43 -15 56 -41 33 -68 -15 -18 -21 -19 -58 -9
-23 6 -49 8 -58 5 -28 -11 -14 -40 24 -49 65 -16 91 -31 106 -61 56 -106 -101
-202 -213 -131 -45 29 -17 93 32 73 30 -12 93 -11 101 2 9 16 -15 34 -65 48
-108 31 -122 124 -27 182 35 21 78 24 125 8z m1234 -11 c12 -6 17 -18 15 -36
-3 -26 -5 -27 -68 -27 -58 0 -65 -2 -65 -20 0 -15 12 -23 50 -33 70 -20 95
-45 95 -98 0 -80 -63 -119 -168 -103 -55 8 -77 29 -68 63 7 30 27 33 88 14 33
-10 41 -9 55 5 23 22 5 42 -53 56 -65 17 -98 52 -91 98 11 68 71 107 147 97
25 -3 53 -10 63 -16z m-3174 -83 l64 -90 -7 72 c-9 90 2 115 47 111 l32 -3 3
-158 3 -157 -26 -10 c-14 -5 -31 -7 -39 -4 -8 3 -42 46 -76 95 -34 49 -64 89
-67 89 -3 0 -2 -29 2 -65 3 -35 4 -74 0 -85 -9 -29 -40 -43 -65 -30 -19 10
-20 21 -20 165 0 165 0 166 55 162 25 -2 39 -16 94 -92z m809 63 c4 -32 -27
-53 -64 -44 l-24 6 0 -117 c0 -65 -4 -123 -8 -129 -12 -18 -42 -24 -63 -14
-17 10 -19 22 -19 130 l0 120 -33 0 c-48 0 -72 20 -63 54 l7 27 132 -3 132 -3
3 -27z m1553 -83 c4 -60 7 -111 8 -112 8 -14 54 -33 70 -28 28 9 34 29 40 145
l6 105 35 0 35 0 3 -110 c3 -122 -5 -152 -50 -190 -40 -34 -132 -36 -172 -4
-46 36 -56 69 -56 182 0 112 7 130 50 125 25 -3 25 -5 31 -113z m401 26 l63
-90 5 87 5 87 35 0 35 0 3 -149 c3 -157 -2 -176 -43 -176 -26 0 -39 13 -110
115 l-54 78 -3 -94 -3 -94 -35 0 -35 0 -3 149 c-3 161 1 176 48 176 24 0 38
-13 92 -89z m566 -44 l3 -128 52 1 c80 3 79 3 75 -32 l-3 -33 -88 -3 c-57 -2
-94 1 -103 9 -11 9 -14 44 -14 153 0 153 5 169 50 164 l25 -3 3 -128z m-1148
23 c40 -40 11 -110 -45 -110 -32 0 -65 33 -65 65 0 32 33 65 65 65 14 0 34 -9
45 -20z"/>
<path d="M924 1417 c-24 -21 -29 -33 -29 -70 0 -59 24 -87 76 -87 99 0 106
152 8 175 -19 5 -34 0 -55 -18z"/>
<path d="M2173 1355 c-11 -34 -11 -35 17 -35 28 0 28 1 17 35 -6 19 -13 35
-17 35 -4 0 -11 -16 -17 -35z"/>
<path d="M771 793 c1 -37 4 -56 6 -41 3 22 10 27 35 30 67 7 62 70 -6 76 l-36
3 1 -68z m69 42 c17 -20 -3 -45 -36 -45 -20 0 -24 5 -24 30 0 25 4 30 24 30
13 0 29 -7 36 -15z"/>
<path d="M920 795 c0 -37 4 -65 10 -65 6 0 10 11 10 25 0 33 26 33 52 -1 11
-14 23 -23 26 -20 3 3 -2 14 -12 25 -15 16 -15 19 -1 31 36 30 10 70 -47 70
l-38 0 0 -65z m86 40 c9 -21 -14 -45 -42 -45 -20 0 -24 5 -24 30 0 27 3 30 30
30 18 0 33 -6 36 -15z"/>
<path d="M1090 795 l0 -65 48 2 47 1 -42 4 c-38 4 -43 7 -43 28 0 20 6 24 38
28 l37 4 -37 1 c-33 2 -38 5 -38 26 0 22 5 25 43 29 l42 4 -47 1 -48 2 0 -65z"/>
<path d="M1252 793 l1 -68 6 54 6 54 33 -46 c48 -68 52 -67 50 10 l-1 68 -6
-54 -6 -54 -33 46 c-48 68 -52 67 -50 -10z"/>
<path d="M1429 844 c-16 -20 -1 -48 29 -52 25 -4 46 -27 37 -42 -8 -14 -48
-13 -63 2 -9 9 -12 9 -12 0 0 -16 50 -27 69 -15 9 6 17 19 19 31 2 15 -5 23
-33 32 -48 16 -45 46 5 43 23 -1 29 1 19 8 -22 14 -55 11 -70 -7z"/>
<path d="M1592 799 c-16 -35 -27 -66 -25 -69 3 -3 9 3 14 13 13 22 77 24 85 2
4 -8 10 -15 15 -15 9 0 -35 108 -51 124 -5 5 -21 -18 -38 -55z m58 -21 c0 -5
-11 -8 -25 -8 -29 0 -29 0 -13 35 l12 26 13 -23 c7 -13 12 -26 13 -30z"/>
<path d="M1840 795 c0 -37 4 -65 10 -65 6 0 10 28 10 65 0 37 -4 65 -10 65 -6
0 -10 -28 -10 -65z"/>
<path d="M1932 793 l1 -68 6 55 6 55 40 -52 c21 -29 43 -53 47 -53 4 0 8 29 8
65 0 74 -17 89 -22 18 l-3 -47 -35 47 c-19 25 -38 47 -42 47 -5 0 -7 -30 -6
-67z"/>
<path d="M2116 844 c-22 -21 -5 -50 34 -58 23 -4 31 -10 28 -23 -3 -14 -13
-18 -43 -16 -35 1 -37 0 -18 -9 12 -6 34 -8 48 -4 21 5 26 12 23 33 -2 21 -10
29 -36 35 -46 12 -41 44 8 41 23 -1 29 1 19 8 -21 13 -46 11 -63 -7z"/>
<path d="M2267 853 c19 -4 23 -12 26 -66 l3 -62 2 62 c2 55 4 62 25 66 12 2 0
4 -28 4 -27 0 -40 -2 -28 -4z"/>
<path d="M2413 795 c0 -38 2 -53 4 -32 2 20 2 52 0 70 -2 17 -4 1 -4 -38z"/>
<path d="M2507 853 c19 -4 23 -12 26 -66 l3 -62 2 62 c2 59 3 62 30 66 15 2 2
4 -28 4 -30 0 -45 -2 -33 -4z"/>
<path d="M2651 813 c-2 -72 29 -100 80 -73 16 9 19 20 17 68 l-2 57 -3 -50
c-5 -55 -16 -75 -44 -75 -24 0 -32 16 -40 75 l-6 50 -2 -52z"/>
<path d="M2842 844 c-15 -10 -22 -25 -22 -49 0 -52 58 -83 100 -54 11 7 5 8
-21 3 -31 -5 -39 -2 -53 17 -21 31 -20 52 3 73 15 13 28 16 53 11 24 -5 29 -4
18 4 -22 15 -52 13 -78 -5z"/>
<path d="M2990 795 c0 -37 4 -65 10 -65 6 0 10 28 10 65 0 37 -4 65 -10 65 -6
0 -10 -28 -10 -65z"/>
<path d="M3102 844 c-34 -23 -27 -83 11 -104 24 -13 30 -13 55 0 37 21 44 81
10 104 -28 20 -48 20 -76 0z m70 -11 c22 -20 23 -51 1 -75 -31 -34 -83 -12
-83 37 0 48 47 70 82 38z"/>
<path d="M3272 793 l1 -68 6 55 6 55 38 -53 c21 -28 41 -52 43 -52 2 0 3 30 2
68 -2 63 -2 64 -5 14 l-4 -52 -40 50 c-22 27 -42 50 -44 50 -3 0 -4 -30 -3
-67z"/>
<path d="M3469 803 c-31 -74 -33 -82 -16 -60 19 23 82 23 91 1 4 -9 9 -15 12
-12 6 7 -46 128 -55 128 -4 0 -18 -26 -32 -57z m53 -15 c7 -15 4 -18 -22 -18
l-31 0 17 33 c12 22 19 27 22 17 3 -8 9 -23 14 -32z"/>
<path d="M3632 798 l-2 -68 43 2 42 1 -37 4 -37 4 -4 62 -3 62 -2 -67z"/>
</g>
</svg>
